<svg width="31" height="34" viewBox="0 0 31 34" fill="none" xmlns="http://www.w3.org/2000/svg">
<path d="M4.38276 33.935C3.38268 33.935 2.52656 33.5789 1.81439 32.8667C1.10219 32.1546 0.746094 31.2985 0.746094 30.2984V13.1211C0.746094 12.5453 0.874897 11.9998 1.1325 11.4846C1.39011 10.9694 1.74619 10.5452 2.20075 10.2118L13.6523 1.60377C14.2878 1.1189 15.0141 0.876465 15.8312 0.876465C16.6482 0.876465 17.3766 1.1189 18.0162 1.60377L29.4678 10.2118C29.9224 10.5452 30.2784 10.9694 30.5361 11.4846C30.7937 11.9998 30.9225 12.5453 30.9225 13.1211V30.2984C30.9225 31.2985 30.5664 32.1546 29.8542 32.8667C29.142 33.5789 28.2859 33.935 27.2858 33.935H4.38276ZM9.95374 26.507H18.0008C18.4612 26.507 18.8471 26.3513 19.1585 26.0399C19.4699 25.7285 19.6256 25.3425 19.6256 24.8822V22.4061L22.1713 23.7447C22.4808 23.8994 22.7787 23.8863 23.065 23.7053C23.3513 23.5243 23.4944 23.2679 23.4944 22.9361V18.7811C23.4944 18.4493 23.3513 18.1929 23.065 18.0119C22.7787 17.8309 22.4808 17.8178 22.1713 17.9725L19.6256 19.3111V16.8351C19.6256 16.3747 19.4699 15.9888 19.1585 15.6774C18.8471 15.3659 18.4612 15.2102 18.0008 15.2102H9.95374C9.49338 15.2102 9.10748 15.3659 8.79602 15.6774C8.4846 15.9888 8.32889 16.3747 8.32889 16.8351V24.8822C8.32889 25.3425 8.4846 25.7285 8.79602 26.0399C9.10748 26.3513 9.49338 26.507 9.95374 26.507Z" fill="#F05906"/>
</svg>
