<svg width="73" height="89" viewBox="0 0 73 89" fill="none" xmlns="http://www.w3.org/2000/svg">
<path d="M0.0722656 81.527V7.69059C0.0722656 5.66931 0.785661 3.97499 2.21245 2.60765C3.63924 1.24031 5.30383 0.556641 7.20622 0.556641C7.80071 0.556641 8.42493 0.645815 9.07888 0.824164C9.73283 1.00251 10.357 1.27004 10.9515 1.62673L69.0932 38.5449C70.1633 39.2583 70.9659 40.1501 71.501 41.2202C72.036 42.2903 72.3035 43.4198 72.3035 44.6088C72.3035 45.7978 72.036 46.9273 71.501 47.9974C70.9659 49.0675 70.1633 49.9593 69.0932 50.6727L10.9515 87.5909C10.357 87.9476 9.73283 88.2151 9.07888 88.3934C8.42493 88.5718 7.80071 88.661 7.20622 88.661C5.30383 88.661 3.63924 87.9773 2.21245 86.6099C0.785661 85.2426 0.0722656 83.5483 0.0722656 81.527Z" fill="white" fill-opacity="0.87"/>
</svg>
