<svg width="19" height="21" viewBox="0 0 19 21" fill="none" xmlns="http://www.w3.org/2000/svg">
                <path
                    d="M11.078 19.3818V4.55684L16.6832 9.09434C16.9458 9.30651 17.2842 9.40859 17.6242 9.37811C17.9641 9.34764 18.2777 9.18711 18.4959 8.93184C18.7141 8.67657 18.8191 8.34746 18.7878 8.01693C18.7564 7.6864 18.5913 7.38151 18.3288 7.16934L10.6152 0.919336C10.5538 0.877287 10.4894 0.839685 10.4224 0.806836C10.3581 0.806836 10.3195 0.806836 10.2552 0.719336C10.1078 0.662678 9.95091 0.633012 9.79241 0.631836C9.63391 0.633012 9.477 0.662678 9.32959 0.719336C9.26531 0.719336 9.22675 0.719336 9.16247 0.806836C9.09543 0.839685 9.03098 0.877287 8.96963 0.919336L1.25603 7.16934C1.11091 7.28686 0.994203 7.43404 0.914211 7.60039C0.83422 7.76675 0.792908 7.9482 0.793215 8.13184C0.792628 8.4239 0.897245 8.70695 1.0889 8.93184C1.19683 9.05841 1.32937 9.16304 1.47895 9.23973C1.62853 9.31642 1.79219 9.36366 1.96058 9.37876C2.12896 9.39385 2.29875 9.3765 2.46023 9.32769C2.6217 9.27889 2.77169 9.19959 2.9016 9.09434L8.50681 4.55684L8.50681 19.3818C8.50681 19.7134 8.64226 20.0313 8.88335 20.2657C9.12445 20.5001 9.45145 20.6318 9.79241 20.6318C10.1334 20.6318 10.4604 20.5001 10.7015 20.2657C10.9426 20.0313 11.078 19.7134 11.078 19.3818Z"
                    fill="white" />
            </svg>