<svg xmlns="http://www.w3.org/2000/svg" width="57" height="57" viewBox="0 0 57 57" fill="none">
  <rect width="57" height="57" rx="7" fill="#242424"/>
  <mask id="mask0_55_1966" style="mask-type:alpha" maskUnits="userSpaceOnUse" x="4" y="4" width="49" height="49">
    <rect x="4.69336" y="4.69409" width="48.2824" height="48.2824" fill="#F05906"/>
  </mask>
  <g mask="url(#mask0_55_1966)">
    <path d="M15.3713 45.9353C14.3551 45.9353 13.4949 45.5832 12.7908 44.8791C12.0867 44.175 11.7346 43.3148 11.7346 42.2986V15.372C11.7346 14.3558 12.0867 13.4956 12.7908 12.7915C13.4949 12.0874 14.3551 11.7354 15.3713 11.7354H42.2979C43.3141 11.7354 44.1742 12.0874 44.8783 12.7915C45.5825 13.4956 45.9345 14.3558 45.9345 15.372V42.2986C45.9345 43.3148 45.5825 44.175 44.8783 44.8791C44.1742 45.5832 43.3141 45.9353 42.2979 45.9353H15.3713ZM26.8228 26.8235V30.8471H30.8463V26.8235H26.8228ZM18.7757 26.8235V30.8471H22.7993V26.8235H18.7757ZM22.7993 30.8471V34.8706H26.8228V30.8471H22.7993ZM30.8463 30.8471V34.8706H34.8699V30.8471H30.8463ZM14.7522 30.8471V34.8706H18.7757V30.8471H14.7522ZM34.8699 26.8235V30.8471H38.8934V34.8706H42.9169V30.8471H38.8934V26.8235H34.8699ZM18.7757 34.8706V38.8941H14.7522V42.2986C14.7522 42.4663 14.8135 42.6114 14.936 42.7339C15.0585 42.8564 15.2036 42.9177 15.3713 42.9177H18.7757V38.8941H22.7993V42.9177H26.8228V38.8941H30.8463V42.9177H34.8699V38.8941H38.8934V42.9177H42.2979C42.4655 42.9177 42.6106 42.8564 42.7331 42.7339C42.8557 42.6114 42.9169 42.4663 42.9169 42.2986V38.8941H38.8934V34.8706H34.8699V38.8941H30.8463V34.8706H26.8228V38.8941H22.7993V34.8706H18.7757Z" fill="#F05906"/>
  </g>
</svg>