<svg width="57" height="57" viewBox="0 0 57 57" fill="none" xmlns="http://www.w3.org/2000/svg">
<rect width="57" height="57" rx="7" fill="#242424"/>
<mask id="mask0_55_1956" style="mask-type:alpha" maskUnits="userSpaceOnUse" x="4" y="4" width="49" height="49">
<rect x="4.69336" y="4.69409" width="48.2824" height="48.2824" fill="#F05906"/>
</mask>
<g mask="url(#mask0_55_1956)">
<path d="M18.2717 26.3206C18.6179 26.3206 18.9045 26.2073 19.1315 25.9808C19.3584 25.7543 19.4719 25.4678 19.4719 25.1213V24.5023C19.4719 24.1558 19.3587 23.8694 19.1323 23.6428C18.906 23.4163 18.6197 23.303 18.2735 23.303C17.9273 23.303 17.6407 23.4163 17.4137 23.6428C17.1868 23.8694 17.0733 24.1558 17.0733 24.5023V25.1213C17.0733 25.4678 17.1865 25.7543 17.4129 25.9808C17.6392 26.2073 17.9255 26.3206 18.2717 26.3206ZM23.3011 30.3441C23.6473 30.3441 23.9339 30.2309 24.1609 30.0043C24.3879 29.7778 24.5013 29.4913 24.5013 29.1449V20.4788C24.5013 20.1323 24.3881 19.8458 24.1617 19.6193C23.9354 19.3928 23.6491 19.2795 23.3029 19.2795C22.9567 19.2795 22.6701 19.3928 22.4431 19.6193C22.2162 19.8458 22.1027 20.1323 22.1027 20.4788V29.1449C22.1027 29.4913 22.2159 29.7778 22.4423 30.0043C22.6686 30.2309 22.9549 30.3441 23.3011 30.3441ZM28.8335 34.3676C29.1797 34.3676 29.4663 34.2544 29.6932 34.0279C29.9202 33.8013 30.0337 33.5148 30.0337 33.1684V16.4553C30.0337 16.1088 29.9205 15.8223 29.6941 15.5958C29.4677 15.3692 29.1815 15.256 28.8353 15.256C28.4891 15.256 28.2025 15.3692 27.9755 15.5958C27.7485 15.8223 27.6351 16.1088 27.6351 16.4553V33.1684C27.6351 33.5148 27.7483 33.8013 27.9746 34.0279C28.201 34.2544 28.4873 34.3676 28.8335 34.3676ZM34.3658 30.3441C34.712 30.3441 34.9986 30.2309 35.2256 30.0043C35.4526 29.7778 35.566 29.4913 35.566 29.1449V20.4788C35.566 20.1323 35.4528 19.8458 35.2265 19.6193C35.0001 19.3928 34.7138 19.2795 34.3676 19.2795C34.0214 19.2795 33.7348 19.3928 33.5079 19.6193C33.2809 19.8458 33.1674 20.1323 33.1674 20.4788V29.1449C33.1674 29.4913 33.2806 29.7778 33.507 30.0043C33.7334 30.2309 34.0196 30.3441 34.3658 30.3441ZM39.3952 26.3206C39.7414 26.3206 40.028 26.2073 40.255 25.9808C40.482 25.7543 40.5955 25.4678 40.5955 25.1213V24.5023C40.5955 24.1558 40.4823 23.8694 40.2559 23.6428C40.0295 23.4163 39.7432 23.303 39.397 23.303C39.0509 23.303 38.7643 23.4163 38.5373 23.6428C38.3103 23.8694 38.1968 24.1558 38.1968 24.5023V25.1213C38.1968 25.4678 38.31 25.7543 38.5364 25.9808C38.7628 26.2073 39.049 26.3206 39.3952 26.3206ZM16.8412 39.9L12.8138 43.9274C12.2413 44.4999 11.5829 44.6285 10.8388 44.3131C10.0947 43.9977 9.72266 43.4346 9.72266 42.6236V13.3603C9.72266 12.3441 10.0747 11.4839 10.7788 10.7798C11.483 10.0757 12.3431 9.72363 13.3593 9.72363H44.3094C45.3256 9.72363 46.1858 10.0757 46.8899 10.7798C47.594 11.4839 47.9461 12.3441 47.9461 13.3603V36.2633C47.9461 37.2795 47.594 38.1397 46.8899 38.8438C46.1858 39.5479 45.3256 39.9 44.3094 39.9H16.8412Z" fill="#F05906"/>
</g>
</svg>
