<svg width="57" height="57" viewBox="0 0 57 57" fill="none" xmlns="http://www.w3.org/2000/svg">
<rect width="57" height="57" rx="7" fill="#242424"/>
<mask id="mask0_55_1961" style="mask-type:alpha" maskUnits="userSpaceOnUse" x="4" y="4" width="49" height="49">
<rect x="4.69336" y="4.69409" width="48.2824" height="48.2824" fill="#F05906"/>
</mask>
<g mask="url(#mask0_55_1961)">
<path d="M17.3828 45.935C16.3827 45.935 15.5266 45.5789 14.8144 44.8667C14.1022 44.1546 13.7461 43.2985 13.7461 42.2984V25.1211C13.7461 24.5453 13.8749 23.9998 14.1325 23.4846C14.3901 22.9694 14.7462 22.5452 15.2007 22.2118L26.6523 13.6038C27.2878 13.1189 28.0141 12.8765 28.8312 12.8765C29.6482 12.8765 30.3766 13.1189 31.0162 13.6038L42.4678 22.2118C42.9224 22.5452 43.2784 22.9694 43.5361 23.4846C43.7937 23.9998 43.9225 24.5453 43.9225 25.1211V42.2984C43.9225 43.2985 43.5664 44.1546 42.8542 44.8667C42.142 45.5789 41.2859 45.935 40.2858 45.935H17.3828ZM22.9537 38.507H31.0008C31.4612 38.507 31.8471 38.3513 32.1585 38.0399C32.4699 37.7285 32.6256 37.3425 32.6256 36.8822V34.4061L35.1713 35.7447C35.4808 35.8994 35.7787 35.8863 36.065 35.7053C36.3513 35.5243 36.4944 35.2679 36.4944 34.9361V30.7811C36.4944 30.4493 36.3513 30.1929 36.065 30.0119C35.7787 29.8309 35.4808 29.8178 35.1713 29.9725L32.6256 31.3111V28.8351C32.6256 28.3747 32.4699 27.9888 32.1585 27.6774C31.8471 27.3659 31.4612 27.2102 31.0008 27.2102H22.9537C22.4934 27.2102 22.1075 27.3659 21.796 27.6774C21.4846 27.9888 21.3289 28.3747 21.3289 28.8351V36.8822C21.3289 37.3425 21.4846 37.7285 21.796 38.0399C22.1075 38.3513 22.4934 38.507 22.9537 38.507Z" fill="#F05906"/>
</g>
</svg>
