<svg width="25" height="25" viewBox="0 0 25 25" fill="none" xmlns="http://www.w3.org/2000/svg">
<rect width="25" height="25" rx="7" fill="#242424"/>
<mask id="mask0_4030_165" style="mask-type:alpha" maskUnits="userSpaceOnUse" x="2" y="2" width="22" height="22">
<rect x="2.05859" y="2.05884" width="21.1765" height="21.1765" fill="#D9D9D9"/>
</mask>
<g mask="url(#mask0_4030_165)">
<path d="M10.2029 13.3766H11.8319V11.1198H13.4608V13.3766H15.0898V9.49089L12.6464 7.86194L10.2029 9.49089V13.3766ZM12.6464 20.5355C12.4744 20.5355 12.3025 20.5058 12.1305 20.4464C11.9586 20.3871 11.8031 20.2951 11.6639 20.1707C10.8721 19.4411 10.1311 18.6897 9.44109 17.9165C8.75105 17.1433 8.15122 16.3704 7.6416 15.5978C7.13198 14.8252 6.7287 14.0593 6.43176 13.3003C6.13481 12.5412 5.98633 11.8082 5.98633 11.1012C5.98633 9.06499 6.64498 7.41652 7.96229 6.15577C9.27959 4.89502 10.8409 4.26465 12.6464 4.26465C14.4518 4.26465 16.0132 4.89502 17.3305 6.15577C18.6478 7.41652 19.3064 9.06499 19.3064 11.1012C19.3064 11.8082 19.1579 12.5398 18.861 13.296C18.564 14.0523 18.1622 14.8181 17.6554 15.5936C17.1486 16.369 16.5502 17.1419 15.8601 17.9123C15.1701 18.6826 14.4292 19.4326 13.6373 20.1622C13.4982 20.2867 13.3412 20.38 13.1665 20.4422C12.9917 20.5044 12.8183 20.5355 12.6464 20.5355Z" fill="#F05906"/>
</g>
</svg>
