<svg width="25" height="25" viewBox="0 0 25 25" fill="none" xmlns="http://www.w3.org/2000/svg">
<rect width="25" height="25" rx="7" fill="#242424"/>
<mask id="mask0_4030_163" style="mask-type:alpha" maskUnits="userSpaceOnUse" x="2" y="2" width="22" height="22">
<rect x="2.05859" y="2.05884" width="21.1765" height="21.1765" fill="#D9D9D9"/>
</mask>
<g mask="url(#mask0_4030_163)">
<path d="M6.47146 12.255L4.57103 10.3546C4.41153 10.1951 4.33319 10.009 4.33601 9.7963C4.33883 9.58364 4.42 9.39756 4.5795 9.23806L6.47146 7.3461C6.63096 7.1866 6.81704 7.10685 7.0297 7.10685C7.24236 7.10685 7.42845 7.1866 7.58797 7.3461L9.47991 9.23806C9.63941 9.39756 9.71916 9.58364 9.71916 9.7963C9.71916 10.009 9.63941 10.1951 9.47991 10.3546L7.58797 12.2465C7.42845 12.406 7.24236 12.4872 7.0297 12.49C6.81704 12.4928 6.63096 12.4145 6.47146 12.255ZM11.153 21.0293C10.9271 21.0293 10.7376 20.9529 10.5848 20.8C10.4319 20.6471 10.3555 20.4577 10.3555 20.2318V16.7957C9.59869 16.7361 8.84943 16.6541 8.10774 16.5498C7.36603 16.4455 6.62433 16.3114 5.88264 16.1475C5.68922 16.1 5.53085 15.9956 5.40754 15.8344C5.28425 15.6733 5.25088 15.4974 5.30744 15.3068C5.364 15.1161 5.47938 14.9762 5.65358 14.8868C5.82779 14.7974 6.01161 14.7765 6.20503 14.824C7.26159 15.0684 8.32826 15.2375 9.40504 15.3314C10.4818 15.4253 11.5622 15.4722 12.6462 15.4722C13.7302 15.4722 14.8106 15.4253 15.8874 15.3314C16.9642 15.2375 18.0308 15.0684 19.0874 14.824C19.2808 14.7765 19.4647 14.7972 19.6391 14.886C19.8134 14.9749 19.9287 15.1137 19.985 15.3025C20.0415 15.4959 20.0082 15.6733 19.8849 15.8344C19.7616 15.9956 19.6032 16.1 19.4098 16.1475C18.6681 16.3114 17.9264 16.4455 17.1847 16.5498C16.443 16.6541 15.6937 16.7361 14.9369 16.7957V20.2318C14.9369 20.4577 14.8605 20.6471 14.7076 20.8C14.5548 20.9529 14.3654 21.0293 14.1394 21.0293H11.153ZM12.6462 8.4049C11.9958 8.4049 11.4429 8.17725 10.9876 7.72194C10.5323 7.26661 10.3046 6.71373 10.3046 6.06329C10.3046 5.41285 10.5323 4.85997 10.9876 4.40464C11.4429 3.94933 11.9958 3.72168 12.6462 3.72168C13.2967 3.72168 13.8495 3.94933 14.3049 4.40464C14.7602 4.85997 14.9878 5.41285 14.9878 6.06329C14.9878 6.71373 14.7602 7.26661 14.3049 7.72194C13.8495 8.17725 13.2967 8.4049 12.6462 8.4049ZM12.6462 14.3183C12.1983 14.3183 11.8148 14.1588 11.4958 13.8398C11.1768 13.5208 11.0173 13.1374 11.0173 12.6894C11.0173 12.2414 11.1768 11.858 11.4958 11.539C11.8148 11.22 12.1983 11.0605 12.6462 11.0605C13.0942 11.0605 13.4777 11.22 13.7967 11.539C14.1157 11.858 14.2752 12.2414 14.2752 12.6894C14.2752 13.1374 14.1157 13.5208 13.7967 13.8398C13.4777 14.1588 13.0942 14.3183 12.6462 14.3183ZM16.851 12.1803L15.9635 10.6362C15.8957 10.517 15.8617 10.3846 15.8617 10.2388C15.8617 10.0931 15.8957 9.95977 15.9635 9.83872L16.851 8.29463C16.9188 8.16454 17.0128 8.06556 17.1329 7.99769C17.2529 7.92981 17.3863 7.89587 17.5331 7.89587H19.2553C19.4021 7.89587 19.5355 7.92981 19.6556 7.99769C19.7756 8.06556 19.8696 8.16454 19.9375 8.29463L20.8249 9.83872C20.8928 9.95794 20.9267 10.0904 20.9267 10.2361C20.9267 10.3818 20.8928 10.5152 20.8249 10.6362L19.9375 12.1803C19.8696 12.3104 19.7756 12.4094 19.6556 12.4773C19.5355 12.5451 19.4021 12.5791 19.2553 12.5791H17.5331C17.3863 12.5791 17.2529 12.5451 17.1329 12.4773C17.0128 12.4094 16.9188 12.3104 16.851 12.1803Z" fill="#F05906"/>
</g>
</svg>
