<svg width="25" height="25" viewBox="0 0 25 25" fill="none" xmlns="http://www.w3.org/2000/svg">
<rect width="25" height="25" rx="7" fill="#242424"/>
<mask id="mask0_4022_82" style="mask-type:alpha" maskUnits="userSpaceOnUse" x="2" y="2" width="22" height="22">
<rect x="2.05859" y="2.05884" width="21.1765" height="21.1765" fill="#D9D9D9"/>
</mask>
<g mask="url(#mask0_4022_82)">
<path d="M10.0995 9.47401H15.1934L12.9061 4.92651H12.3869L10.0995 9.47401ZM12.1205 19.6075V10.526H4.55262L12.1205 19.6075ZM13.1725 19.6075L20.7404 10.526H13.1725V19.6075ZM16.3523 9.47401H20.9609L19.1301 5.80377C18.9832 5.53793 18.7863 5.32526 18.5393 5.16576C18.2923 5.00626 18.0152 4.92651 17.7081 4.92651H14.0922L16.3523 9.47401ZM4.33203 9.47401H8.94063L11.2008 4.92651H7.58485C7.27776 4.92651 7.00072 5.00626 6.75371 5.16576C6.5067 5.32526 6.30977 5.53793 6.16291 5.80377L4.33203 9.47401Z" fill="#F05906"/>
</g>
</svg>
