<svg width="25" height="25" viewBox="0 0 25 25" fill="none" xmlns="http://www.w3.org/2000/svg">
<rect width="25" height="25" rx="7" fill="#242424"/>
<mask id="mask0_4030_164" style="mask-type:alpha" maskUnits="userSpaceOnUse" x="2" y="2" width="22" height="22">
<rect x="2.05859" y="2.05884" width="21.1765" height="21.1765" fill="#D9D9D9"/>
</mask>
<g mask="url(#mask0_4030_164)">
<path d="M12.6472 21.0972C12.2015 21.0972 11.8171 20.9428 11.4942 20.6339C11.1712 20.3251 10.9956 19.9479 10.9673 19.5022H14.327C14.2987 19.9479 14.1231 20.3251 13.8001 20.6339C13.4772 20.9428 13.0928 21.0972 12.6472 21.0972ZM10.0001 18.2804C9.81231 18.2804 9.65508 18.2171 9.52839 18.0904C9.4017 17.9637 9.33835 17.8065 9.33835 17.6187C9.33835 17.4309 9.4017 17.2737 9.52839 17.147C9.65508 17.0203 9.81231 16.9569 10.0001 16.9569H15.2942C15.482 16.9569 15.6392 17.0203 15.7659 17.147C15.8926 17.2737 15.956 17.4309 15.956 17.6187C15.956 17.8065 15.8926 17.9637 15.7659 18.0904C15.6392 18.2171 15.482 18.2804 15.2942 18.2804H10.0001ZM9.47408 15.7352C8.54989 15.1605 7.81828 14.4097 7.27925 13.4827C6.74022 12.5556 6.4707 11.5418 6.4707 10.4411C6.4707 8.72166 7.07025 7.26238 8.26934 6.06328C9.46844 4.86419 10.9277 4.26465 12.6472 4.26465C14.3666 4.26465 15.8259 4.86419 17.025 6.06328C18.2241 7.26238 18.8236 8.72166 18.8236 10.4411C18.8236 11.5418 18.5541 12.5556 18.0151 13.4827C17.476 14.4097 16.7444 15.1605 15.8202 15.7352H9.47408Z" fill="#F05906"/>
</g>
</svg>
