<svg width="25" height="25" viewBox="0 0 25 25" fill="none" xmlns="http://www.w3.org/2000/svg">
<rect width="25" height="25" rx="7" fill="#242424"/>
<mask id="mask0_4030_162" style="mask-type:alpha" maskUnits="userSpaceOnUse" x="2" y="2" width="22" height="22">
<rect x="2.05859" y="2.05884" width="21.1765" height="21.1765" fill="#D9D9D9"/>
</mask>
<g mask="url(#mask0_4030_162)">
<path d="M11.7197 13.5872L10.2876 12.1686C10.1654 12.0465 10.0141 11.984 9.83372 11.9811C9.65329 11.9783 9.49465 12.0453 9.35778 12.1822C9.22994 12.31 9.16602 12.465 9.16602 12.6471C9.16602 12.8293 9.22994 12.9842 9.35778 13.112L11.1615 14.9158C11.321 15.0753 11.5071 15.155 11.7197 15.155C11.9324 15.155 12.1185 15.0753 12.278 14.9158L15.9347 11.2591C16.0659 11.1279 16.1306 10.9743 16.129 10.7984C16.1273 10.6225 16.0625 10.4661 15.9347 10.3293C15.7978 10.1924 15.6406 10.1217 15.463 10.1172C15.2854 10.1126 15.1281 10.1788 14.9912 10.3157L11.7197 13.5872ZM9.47824 20.7495L8.25823 18.698L5.95055 18.2025C5.75258 18.1641 5.59449 18.06 5.47629 17.8903C5.35808 17.7206 5.31085 17.5368 5.3346 17.3388L5.56029 14.965L3.99071 13.1698C3.85498 13.025 3.78711 12.8508 3.78711 12.6471C3.78711 12.4435 3.85498 12.2693 3.99071 12.1245L5.56029 10.3293L5.3346 7.95542C5.31085 7.75745 5.35808 7.57363 5.47629 7.40395C5.59449 7.23426 5.75258 7.13019 5.95055 7.09173L8.25823 6.59627L9.47824 4.5448C9.58458 4.37059 9.72938 4.25181 9.91265 4.18846C10.0959 4.12512 10.282 4.13474 10.4709 4.21731L12.6462 5.13699L14.8216 4.21731C15.0105 4.13474 15.1965 4.12512 15.3798 4.18846C15.5631 4.25181 15.7079 4.37059 15.8142 4.5448L17.0342 6.59627L19.3419 7.09173C19.5399 7.13019 19.6979 7.23426 19.8162 7.40395C19.9344 7.57363 19.9816 7.75745 19.9578 7.95542L19.7322 10.3293L21.3017 12.1245C21.4375 12.2693 21.5054 12.4435 21.5054 12.6471C21.5054 12.8508 21.4375 13.025 21.3017 13.1698L19.7322 14.965L19.9578 17.3388C19.9816 17.5368 19.9344 17.7206 19.8162 17.8903C19.6979 18.06 19.5399 18.1641 19.3419 18.2025L17.0342 18.698L15.8142 20.7495C15.7079 20.9237 15.5631 21.0425 15.3798 21.1058C15.1965 21.1692 15.0105 21.1595 14.8216 21.077L12.6462 20.1573L10.4709 21.077C10.282 21.1595 10.0959 21.1691 9.91265 21.1058C9.72938 21.0425 9.58458 20.9237 9.47824 20.7495Z" fill="#F05906"/>
</g>
</svg>
