<svg width="25" height="25" viewBox="0 0 25 25" fill="none" xmlns="http://www.w3.org/2000/svg">
<rect width="25" height="25" rx="7" fill="#242424"/>
<mask id="mask0_4022_85" style="mask-type:alpha" maskUnits="userSpaceOnUse" x="2" y="2" width="22" height="22">
<path d="M2.05859 2.05884H23.2351V12.6471V23.2353H2.05859V2.05884Z" fill="#D9D9D9"/>
</mask>
<g mask="url(#mask0_4022_85)">
<path d="M12.0886 9.25507L10.4422 7.59517C10.2841 7.43708 10.2051 7.2517 10.2051 7.03904C10.2051 6.82637 10.2849 6.64028 10.4444 6.48078L12.0924 4.82087C12.2493 4.66278 12.4358 4.58374 12.6518 4.58374C12.8677 4.58374 13.0567 4.66349 13.2186 4.82299L14.865 6.48289C15.0231 6.64098 15.1021 6.82637 15.1021 7.03904C15.1021 7.2517 15.0224 7.43778 14.8629 7.59728L13.2148 9.25721C13.0579 9.41528 12.8714 9.49432 12.6555 9.49432C12.4395 9.49432 12.2505 9.41457 12.0886 9.25507ZM4.18814 19.4344C3.96217 19.4344 3.77276 19.3579 3.6199 19.2051C3.46705 19.0522 3.39062 18.8628 3.39062 18.6369V16.1256C3.39062 15.6991 3.53514 15.338 3.82417 15.0421C4.11318 14.7463 4.46357 14.5928 4.87534 14.5815H7.59535C7.86118 14.5815 8.11373 14.6465 8.35298 14.7766C8.59223 14.9067 8.78708 15.0882 8.93754 15.3213C9.37532 15.9231 9.91802 16.3914 10.5657 16.7263C11.2133 17.0611 11.907 17.2285 12.6468 17.2285C13.3964 17.2285 14.0962 17.0611 14.7463 16.7263C15.3964 16.3914 15.9359 15.9231 16.3646 15.3213C16.5331 15.0882 16.7342 14.9067 16.9677 14.7766C17.2012 14.6465 17.4447 14.5815 17.6983 14.5815H20.4183C20.8391 14.5928 21.1932 14.7463 21.4805 15.0421C21.7678 15.338 21.9115 15.6991 21.9115 16.1256V18.6369C21.9115 18.8628 21.8351 19.0522 21.6822 19.2051C21.5293 19.3579 21.3399 19.4344 21.114 19.4344H16.9737C16.7478 19.4344 16.5584 19.3579 16.4055 19.2051C16.2527 19.0522 16.1762 18.8628 16.1762 18.6369V17.3591C15.6728 17.7437 15.1213 18.0387 14.5216 18.244C13.9219 18.4494 13.2964 18.552 12.6449 18.552C12.0081 18.552 11.3903 18.4483 10.7913 18.241C10.1924 18.0337 9.63722 17.738 9.1259 17.3541V18.6369C9.1259 18.8628 9.04946 19.0522 8.8966 19.2051C8.74374 19.3579 8.55434 19.4344 8.32838 19.4344H4.18814ZM5.84354 13.3597C5.17546 13.3597 4.60385 13.1222 4.12874 12.6471C3.65363 12.1719 3.41608 11.6003 3.41608 10.9322C3.41608 10.2508 3.65363 9.6762 4.12874 9.20844C4.60385 8.74069 5.17546 8.50681 5.84354 8.50681C6.525 8.50681 7.0996 8.74069 7.56735 9.20844C8.03512 9.6762 8.269 10.2508 8.269 10.9322C8.269 11.6003 8.03512 12.1719 7.56735 12.6471C7.0996 13.1222 6.525 13.3597 5.84354 13.3597ZM19.4521 13.3597C18.784 13.3597 18.2124 13.1222 17.7373 12.6471C17.2622 12.1719 17.0246 11.6003 17.0246 10.9322C17.0246 10.2508 17.2622 9.6762 17.7373 9.20844C18.2124 8.74069 18.784 8.50681 19.4521 8.50681C20.1336 8.50681 20.7082 8.74069 21.1759 9.20844C21.6437 9.6762 21.8776 10.2508 21.8776 10.9322C21.8776 11.6003 21.6437 12.1719 21.1759 12.6471C20.7082 13.1222 20.1336 13.3597 19.4521 13.3597Z" fill="#F05906"/>
</g>
</svg>
