<svg width="37" height="37" viewBox="0 0 37 37" fill="none" xmlns="http://www.w3.org/2000/svg">
<circle cx="18.1311" cy="18.1311" r="18.1311" transform="matrix(-1 0 0 1 37 0.369141)" fill="#E8E8ED"/>
<mask id="mask0_55_1815" style="mask-type:alpha" maskUnits="userSpaceOnUse" x="9" y="9" width="20" height="20">
<rect x="9.60156" y="9.23291" width="19.3398" height="19.3398" fill="#666668"/>
</mask>
<g mask="url(#mask0_55_1815)">
<path d="M21.266 18.9029L15.3432 12.9801C15.1418 12.7786 15.0444 12.5402 15.0511 12.2649C15.0578 11.9896 15.1619 11.7512 15.3634 11.5497C15.5648 11.3483 15.8032 11.2476 16.0785 11.2476C16.3539 11.2476 16.5922 11.3483 16.7937 11.5497L22.9784 17.7546C23.1396 17.9158 23.2605 18.0971 23.341 18.2985C23.4216 18.5 23.4619 18.7014 23.4619 18.9029C23.4619 19.1044 23.4216 19.3058 23.341 19.5073C23.2605 19.7087 23.1396 19.89 22.9784 20.0512L16.7736 26.2561C16.5721 26.4575 16.3371 26.5549 16.0685 26.5482C15.7999 26.5415 15.5648 26.4374 15.3634 26.2359C15.1619 26.0345 15.0612 25.7961 15.0612 25.5207C15.0612 25.2454 15.1619 25.007 15.3634 24.8056L21.266 18.9029Z" fill="#666668"/>
</g>
</svg>
