<svg width="37" height="37" viewBox="0 0 37 37" fill="none" xmlns="http://www.w3.org/2000/svg">
<g id="Group 118">
<circle id="Ellipse 2" cx="18.1311" cy="18.5" r="18.1311" fill="#E8E8ED"/>
<g id="arrow_forward_ios">
<mask id="mask0_55_1810" style="mask-type:alpha" maskUnits="userSpaceOnUse" x="8" y="9" width="20" height="20">
<rect id="Bounding box" width="19.3398" height="19.3398" transform="matrix(-1 0 0 1 27.3984 9.23267)" fill="#666668"/>
</mask>
<g mask="url(#mask0_55_1810)">
<path id="arrow_forward_ios_2" d="M15.734 18.9027L21.6568 12.9798C21.8582 12.7784 21.9556 12.54 21.9489 12.2647C21.9422 11.9893 21.8381 11.751 21.6366 11.5495C21.4352 11.348 21.1968 11.2473 20.9215 11.2473C20.6461 11.2473 20.4078 11.348 20.2063 11.5495L14.0216 17.7544C13.8604 17.9155 13.7395 18.0968 13.659 18.2983C13.5784 18.4997 13.5381 18.7012 13.5381 18.9027C13.5381 19.1041 13.5784 19.3056 13.659 19.507C13.7395 19.7085 13.8604 19.8898 14.0216 20.051L20.2264 26.2558C20.4279 26.4573 20.6629 26.5546 20.9315 26.5479C21.2001 26.5412 21.4352 26.4371 21.6366 26.2357C21.8381 26.0342 21.9388 25.7958 21.9388 25.5205C21.9388 25.2452 21.8381 25.0068 21.6366 24.8053L15.734 18.9027Z" fill="#666668"/>
</g>
</g>
</g>
</svg>
