<svg width="116" height="19" viewBox="0 0 116 19" fill="none" xmlns="http://www.w3.org/2000/svg">
<path d="M9.24638 0L11.3223 6.38909H18.0402L12.6053 10.3378L14.6813 16.7269L9.24638 12.7782L3.81149 16.7269L5.88743 10.3378L0.45255 6.38909H7.17044L9.24638 0Z" fill="#F05906"/>
<path d="M33.6233 0L35.6993 6.38909H42.4172L36.9823 10.3378L39.0582 16.7269L33.6233 12.7782L28.1884 16.7269L30.2644 10.3378L24.8295 6.38909H31.5474L33.6233 0Z" fill="#F05906"/>
<path d="M58.0003 0L60.0762 6.38909H66.7941L61.3592 10.3378L63.4352 16.7269L58.0003 12.7782L52.5654 16.7269L54.6413 10.3378L49.2065 6.38909H55.9243L58.0003 0Z" fill="#F05906"/>
<path d="M82.3772 0L84.4532 6.38909H91.1711L85.7362 10.3378L87.8121 16.7269L82.3772 12.7782L76.9424 16.7269L79.0183 10.3378L73.5834 6.38909H80.3013L82.3772 0Z" fill="#F05906"/>
<path d="M106.754 0L108.83 6.38909H115.548L110.113 10.3378L112.189 16.7269L106.754 12.7782L101.319 16.7269L103.395 10.3378L97.9604 6.38909H104.678L106.754 0Z" fill="#F05906"/>
</svg>
