<svg width="215" height="215" viewBox="0 0 215 215" fill="none" xmlns="http://www.w3.org/2000/svg">
<mask id="mask0_55_2647" style="mask-type:alpha" maskUnits="userSpaceOnUse" x="0" y="0" width="215" height="215">
<rect width="215" height="215" fill="#D9D9D9"/>
</mask>
<g mask="url(#mask0_55_2647)">
<path d="M77.0423 131.464L53.0788 107.5L77.0423 83.5366L81.2975 88.0158L61.8132 107.5L81.2975 126.985L77.0423 131.464ZM137.959 131.464L133.704 126.985L153.188 107.5L133.704 88.0158L137.959 83.5366L161.923 107.5L137.959 131.464ZM51.959 176.479C48.077 176.479 44.867 175.21 42.3288 172.672C39.7906 170.134 38.5215 166.924 38.5215 163.042V134.375H44.7923V163.042C44.7923 164.834 45.5388 166.476 47.0319 167.969C48.525 169.462 50.1673 170.209 51.959 170.209H80.6257V176.479H51.959ZM134.376 176.479V170.209H163.042C164.834 170.209 166.476 169.462 167.969 167.969C169.462 166.476 170.209 164.834 170.209 163.042V134.375H176.48V163.042C176.48 166.924 175.211 170.134 172.673 172.672C170.134 175.21 166.924 176.479 163.042 176.479H134.376ZM38.5215 80.6252V51.9585C38.5215 48.0766 39.7906 44.8665 42.3288 42.3283C44.867 39.7901 48.077 38.521 51.959 38.521H80.6257V44.7918H51.959C50.1673 44.7918 48.525 45.5384 47.0319 47.0314C45.5388 48.5245 44.7923 50.1668 44.7923 51.9585V80.6252H38.5215ZM170.209 80.6252V51.9585C170.209 50.1668 169.462 48.5245 167.969 47.0314C166.476 45.5384 164.834 44.7918 163.042 44.7918H134.376V38.521H163.042C166.924 38.521 170.134 39.7901 172.673 42.3283C175.211 44.8665 176.48 48.0766 176.48 51.9585V80.6252H170.209Z" fill="#F05906"/>
</g>
</svg>
