<svg width="215" height="215" viewBox="0 0 215 215" fill="none" xmlns="http://www.w3.org/2000/svg">
<mask id="mask0_55_2656" style="mask-type:alpha" maskUnits="userSpaceOnUse" x="0" y="0" width="215" height="215">
<rect width="215" height="215" fill="#D9D9D9"/>
</mask>
<g mask="url(#mask0_55_2656)">
<path d="M75.4733 121.161L89.8066 130.792L107.499 121.833L125.192 130.792L139.525 121.161L130.343 102.573C129.746 101.378 128.85 100.408 127.656 99.6615C126.461 98.9149 125.192 98.5417 123.848 98.5417H90.9264C89.5827 98.5417 88.3509 98.9149 87.2311 99.6615C86.1113 100.408 85.2528 101.378 84.6556 102.573L75.4733 121.161ZM46.8066 179.167H167.968L142.213 126.984L125.64 137.958L107.499 129L89.3587 137.958L72.5619 126.76L46.8066 179.167ZM36.7285 185.438L78.8327 99.6615C80.0271 97.4219 81.7068 95.6302 83.8717 94.2865C86.0367 92.9427 88.3882 92.2708 90.9264 92.2708H104.364V29.5625H151.843L145.796 41.6563L151.843 53.75H110.635V92.2708H123.4C125.939 92.2708 128.253 92.9427 130.343 94.2865C132.433 95.6302 134.076 97.4219 135.27 99.6615L178.27 185.438H36.7285Z" fill="#F05906"/>
</g>
</svg>
