<svg width="215" height="215" viewBox="0 0 215 215" fill="none" xmlns="http://www.w3.org/2000/svg">
<mask id="mask0_55_2653" style="mask-type:alpha" maskUnits="userSpaceOnUse" x="0" y="0" width="215" height="215">
<rect width="215" height="215" fill="#D9D9D9"/>
</mask>
<g mask="url(#mask0_55_2653)">
<path d="M43 47.4792L55.0938 71.6667H81.9688L69.875 47.4792H87.7917L99.8854 71.6667H126.76L114.667 47.4792H132.583L144.677 71.6667H171.552L159.458 47.4792H172C175.882 47.4792 179.092 48.7483 181.63 51.2865C184.168 53.8247 185.438 57.0348 185.438 60.9167V154.083C185.438 157.965 184.168 161.175 181.63 163.714C179.092 166.252 175.882 167.521 172 167.521H43C39.1181 167.521 35.908 166.252 33.3698 163.714C30.8316 161.175 29.5625 157.965 29.5625 154.083V60.9167C29.5625 57.0348 30.8316 53.8247 33.3698 51.2865C35.908 48.7483 39.1181 47.4792 43 47.4792ZM35.8333 77.9376V154.083C35.8333 156.174 36.5052 157.891 37.849 159.234C39.1927 160.578 40.9097 161.25 43 161.25H172C174.09 161.25 175.807 160.578 177.151 159.234C178.495 157.891 179.167 156.174 179.167 154.083V77.9376H35.8333Z" fill="#F05906"/>
</g>
</svg>
